<?xml version="1.0" encoding="utf-8"?>
<!-- Generator: Adobe Illustrator 22.1.0, SVG Export Plug-In . SVG Version: 6.00 Build 0)  -->
<svg version="1.1" xmlns="http://www.w3.org/2000/svg" xmlns:xlink="http://www.w3.org/1999/xlink" x="0px" y="0px"
	 viewBox="0 0 24 24" style="enable-background:new 0 0 24 24;" xml:space="preserve">
<style type="text/css">
	.st0{fill:#FFFFFF;}
</style>
<g id="Layer_2">
</g>
<g id="Layer_1">
	<polygon class="st0" points="18,16 18,20 15,20 19,24 23,20 20,20 20,16 	"/>
	<g>
		<polygon class="st0" points="9.9,4.5 6.9,6.1 9.9,7.8 12.8,6.1 		"/>
		<polygon class="st0" points="10.3,12.1 13.3,10.4 13.3,7 10.3,8.8 		"/>
		<path class="st0" d="M18,2H6C4.9,2,4,2.9,4,4v16c0,1.1,0.9,2,2,2h8.1L12,20v-1c0-0.6,0.4-1,1-1h3v-3c0-0.6,0.4-1,1-1h3V4
			C20,2.9,19.1,2,18,2z M14.2,10.3c0,0.5,0,0.6-0.4,0.8c-1.2,0.7-2.4,1.4-3.6,2.1c-0.1,0.1-0.2,0.1-0.3,0.1c-0.1,0-0.2,0-0.3-0.1
			c-1.2-0.7-2.4-1.4-3.6-2.1c-0.3-0.2-0.4-0.3-0.4-0.6V9.8l3.8,2.2V8.8L5.6,6.5V6.3c0-0.4,0.1-0.5,0.3-0.6c1.2-0.7,2.2-1.2,3.4-1.9
			c0.3-0.1,0.4-0.2,0.6-0.2c0.2,0,0.3,0.1,0.6,0.2c1.2,0.7,2.2,1.2,3.4,1.9C14,5.9,14.2,6,14.2,6.4C14.2,7.7,14.2,8.9,14.2,10.3z"/>
	</g>
</g>
</svg>
