<?xml version="1.0" encoding="utf-8"?>
<!-- Generator: Adobe Illustrator 22.1.0, SVG Export Plug-In . SVG Version: 6.00 Build 0)  -->
<svg version="1.1" id="Layer_1" xmlns="http://www.w3.org/2000/svg" xmlns:xlink="http://www.w3.org/1999/xlink" x="0px" y="0px"
	 viewBox="0 0 1800 300" style="enable-background:new 0 0 1800 300;" xml:space="preserve">
<style type="text/css">
	.st0{fill:#FAD00E;}
	.st1{fill-rule:evenodd;clip-rule:evenodd;fill:#FFFFFF;}
	.st2{fill:#1DC4F4;}
</style>
<g>
	<rect y="-0.3" class="st0" width="300" height="300"/>
	<path class="st1" d="M284.4,242.4c0-41.9,0-80.1,0-121.9c0-11.7-4.2-15.6-10.8-19.4c-36.9-20.6-67.9-37.9-104.9-58.5
		c-8.1-4.5-13.4-7.1-18.7-7.4c-5.3,0.3-10.6,2.9-18.7,7.4C94.3,63.2,63.3,80.4,26.4,101.1c-6.6,3.8-10.8,7.7-10.8,19.4v5l119.8,70
		v104L15.6,229.3v21.2h0c0.2,8.8,1.8,11.3,12.4,17.5c37.7,22,73.5,42.8,111.2,64.8c3.2,1.8,6.9,2.9,10.8,3c3.8-0.1,7.6-1.2,10.8-3
		c37.7-22,73.5-42.8,111.2-64.8C285.3,260.2,284.4,258.2,284.4,242.4z M150,166.6L58.1,114L150,62.6l91.9,51.4L150,166.6z
		 M257.6,245.4l-93,54.2v-104l93-54.2V245.4z"/>
</g>
<g>
	<path class="st2" d="M348.6,261.3c-1.3-1.5-2-3.2-2-5.2v-64.7c0-2,0.7-3.7,2-5.2c1.3-1.5,2.9-2.2,4.8-2.2h58.7
		c16.5,0,24.8-7.6,24.8-22.7c0-15.2-8.3-22.7-24.8-22.7h-58.7c-1.9,0-3.5-0.7-4.8-2.2c-1.3-1.5-2-3.2-2-5.2v-15c0-2,0.7-3.7,2-5.2
		c1.3-1.5,2.9-2.2,4.8-2.2h59.9c10.4,0,19.5,2.2,27.5,6.5c7.9,4.4,14.1,10.5,18.4,18.4c4.3,7.9,6.5,17.1,6.5,27.5
		s-2.2,19.6-6.5,27.5c-4.3,7.9-10.5,14-18.4,18.3c-7.9,4.3-17.1,6.4-27.5,6.4h-38v42.5c0,2-0.7,3.7-2,5.2c-1.3,1.5-2.9,2.2-4.8,2.2
		h-15.2C351.5,263.5,349.9,262.8,348.6,261.3z"/>
	<path class="st2" d="M486.4,261.4c-1.4-1.4-2.1-3.1-2.1-5.1v-78.1c0-2,0.7-3.6,2.1-5.1c1.4-1.4,3-2.1,4.9-2.1h85.3v-55
		c0-2,0.7-3.6,2-5.1c1.3-1.4,3-2.1,5-2.1h15c1.9,0,3.5,0.7,4.9,2.1c1.4,1.4,2.1,3.1,2.1,5.1v140.3c0,2-0.7,3.7-2.1,5.1
		c-1.4,1.4-3,2.1-4.9,2.1h-15c-2,0-3.7-0.7-5-2.1c-1.3-1.4-2-3.1-2-5.1v-55.2h-63.3v55.2c0,2-0.7,3.7-2,5.1c-1.3,1.4-3,2.1-5,2.1
		h-15C489.4,263.5,487.8,262.8,486.4,261.4z M486.4,160c-1.4-1.5-2.1-3.2-2.1-5.2v-38.8c0-2,0.7-3.6,2.1-5.1c1.4-1.4,3-2.1,4.9-2.1
		h15c2,0,3.7,0.7,5,2.1c1.3,1.4,2,3.1,2,5.1v38.8c0,2-0.7,3.7-2,5.2c-1.3,1.5-3,2.2-5,2.2h-15C489.4,162.2,487.8,161.5,486.4,160z"
		/>
	<path class="st2" d="M657.6,250.1c-9.3-7.5-16.5-16.9-21.7-28.1c-5.2-11.2-7.8-23.3-7.8-36.2c0-12.9,2.6-25,7.7-36.2
		c5.1-11.2,12.4-20.6,21.7-28.1c9.3-7.5,20-12.4,32-14.6c2.5,0,4.4,0.5,5.6,1.5c1.6,1.7,2.4,3.7,2.4,6.1v15.8c0,1.7-0.5,3.2-1.5,4.5
		c-1,1.3-2.4,2.2-4.1,2.6c-10.5,2.7-18.9,8.3-25.1,16.8c-6.2,8.6-9.3,19.1-9.3,31.6c0,12.2,3.1,22.6,9.2,31.3
		c6.1,8.6,14.5,14.3,25.2,17c1.7,0.4,3.1,1.3,4.1,2.6c1,1.3,1.5,2.8,1.5,4.5V257c0,2.5-0.8,4.5-2.3,5.8c-1.5,1.3-3.4,2-5.7,2
		C677.5,262.5,666.9,257.7,657.6,250.1z M712.2,262.8c-1.5-1.3-2.3-3.3-2.3-5.8v-15.8c0-1.7,0.5-3.2,1.5-4.5c1-1.3,2.4-2.2,4.1-2.6
		c10.7-2.7,19-8.3,25.2-17c6.1-8.6,9.2-19.1,9.2-31.3c0-12.4-3.1-22.9-9.3-31.6c-6.2-8.7-14.6-14.3-25.1-16.8
		c-1.7-0.3-3.1-1.1-4.1-2.4c-1-1.3-1.5-2.9-1.5-4.7v-15.8c0-2.5,0.7-4.4,2.1-5.7c1.4-1.3,3.4-1.9,5.9-1.9
		c15.7,2.8,29.1,10.2,40.2,22.3c7.1,7.7,12.4,16.3,15.9,25.6c3.5,9.3,5.3,19.7,5.3,31.1c0,12.9-2.6,25-7.8,36.2
		c-5.2,11.2-12.4,20.6-21.7,28.1c-9.3,7.5-19.9,12.4-31.9,14.6C715.6,264.8,713.7,264.1,712.2,262.8z"/>
	<path class="st2" d="M786.6,136.6c-1.3-1.5-2-3.2-2-5.2v-15c0-2.1,0.7-3.9,2-5.4c1.3-1.5,2.9-2.2,4.8-2.2h20.2c2,0,3.7,0.7,5.1,2.2
		c1.4,1.5,2.1,3.3,2.1,5.4v15c0,2-0.7,3.7-2.1,5.2c-1.4,1.5-3.1,2.2-5.1,2.2h-20.2C789.5,138.8,787.9,138.1,786.6,136.6z
		 M832.9,261.3c-1.4-1.5-2.1-3.2-2.1-5.2V116.5c0-2.1,0.7-3.9,2.1-5.4c1.4-1.5,3.1-2.2,5.1-2.2h61.3c1.9,0,3.5,0.7,4.8,2.2
		c1.3,1.5,2,3.3,2,5.4v15c0,2-0.7,3.7-2,5.2c-1.3,1.5-2.9,2.2-4.8,2.2h-39.4v117.3c0,2-0.7,3.7-2.1,5.2c-1.4,1.5-3,2.2-4.9,2.2h-15
		C836,263.5,834.3,262.8,832.9,261.3z"/>
	<path class="st2" d="M941,250.1c-9.3-7.5-16.5-16.9-21.7-28.1c-5.2-11.2-7.8-23.3-7.8-36.2c0-12.9,2.6-25,7.7-36.2
		c5.1-11.2,12.4-20.6,21.7-28.1c9.3-7.5,20-12.4,32-14.6c2.5,0,4.4,0.5,5.6,1.5c1.6,1.7,2.4,3.7,2.4,6.1v15.8c0,1.7-0.5,3.2-1.5,4.5
		c-1,1.3-2.4,2.2-4.1,2.6c-10.5,2.7-18.9,8.3-25.1,16.8c-6.2,8.6-9.3,19.1-9.3,31.6c0,12.2,3.1,22.6,9.2,31.3
		c6.1,8.6,14.5,14.3,25.2,17c1.7,0.4,3.1,1.3,4.1,2.6c1,1.3,1.5,2.8,1.5,4.5V257c0,2.5-0.8,4.5-2.3,5.8c-1.5,1.3-3.4,2-5.7,2
		C960.8,262.5,950.2,257.7,941,250.1z M995.5,262.8c-1.5-1.3-2.3-3.3-2.3-5.8v-15.8c0-1.7,0.5-3.2,1.5-4.5c1-1.3,2.4-2.2,4.1-2.6
		c10.7-2.7,19-8.3,25.2-17c6.1-8.6,9.2-19.1,9.2-31.3c0-12.4-3.1-22.9-9.3-31.6c-6.2-8.7-14.6-14.3-25.1-16.8
		c-1.7-0.3-3.1-1.1-4.1-2.4c-1-1.3-1.5-2.9-1.5-4.7v-15.8c0-2.5,0.7-4.4,2.1-5.7c1.4-1.3,3.4-1.9,5.9-1.9
		c15.7,2.8,29.1,10.2,40.2,22.3c7.1,7.7,12.4,16.3,15.9,25.6c3.5,9.3,5.3,19.7,5.3,31.1c0,12.9-2.6,25-7.8,36.2
		c-5.2,11.2-12.4,20.6-21.7,28.1c-9.3,7.5-19.9,12.4-31.9,14.6C998.9,264.8,997,264.1,995.5,262.8z"/>
	<path class="st2" d="M1087.1,261.3c-1.3-1.5-2-3.2-2-5.2v-15c0-2,0.7-3.7,2-5.1c1.3-1.4,2.9-2.1,4.8-2.1h64.7
		c14.5,0,21.8-5.3,21.8-15.8c0-5.5-2.1-9.8-6.3-12.8c-4.2-3.1-9.9-4.6-17.1-4.6h-63.1c-1.9,0-3.5-0.7-4.8-2.2c-1.3-1.5-2-3.3-2-5.4
		v-14.5c0-2,0.7-3.7,2-5.2c1.3-1.5,2.9-2.2,4.8-2.2h59.5c13.3,0,20-5.3,20-16c0-11.2-6.1-16.9-18.2-16.9h-61.3
		c-1.9,0-3.5-0.7-4.8-2.1c-1.3-1.4-2-3.1-2-5.1v-15c0-2,0.7-3.7,2-5.2c1.3-1.5,2.9-2.2,4.8-2.2h59.5c9.6,0,18.1,1.8,25.5,5.5
		c7.4,3.7,13.1,8.8,17.3,15.5c4.1,6.7,6.2,14.4,6.2,23.3c0,12.5-3.6,22.7-10.8,30.5c5.5,3.8,9.7,8.7,12.8,14.9
		c3.1,6.1,4.6,13.1,4.6,21c0,8.7-2,16.4-6,23c-4,6.6-9.9,11.8-17.7,15.5c-7.8,3.7-17.2,5.6-28.3,5.6h-63.1
		C1090,263.5,1088.4,262.8,1087.1,261.3z"/>
	<path class="st2" d="M1235.7,261.3c-1.4-1.5-2.1-3.2-2.1-5.2V116.3c0-2,0.7-3.7,2.1-5.2s3-2.2,4.9-2.2h15c1.9,0,3.5,0.7,4.9,2.2
		c1.4,1.5,2.1,3.2,2.1,5.2v139.9c0,2-0.7,3.7-2.1,5.2c-1.4,1.5-3,2.2-4.9,2.2h-15C1238.7,263.5,1237.1,262.8,1235.7,261.3z
		 M1276.7,261.3c-1.3-1.5-2-3.2-2-5.2V241c0-2,0.7-3.7,2-5.2c1.3-1.5,3-2.2,5-2.2h46.2c2,0,3.7,0.7,5,2.2s2,3.2,2,5.2v15.2
		c0,2-0.7,3.7-2,5.2c-1.3,1.5-3,2.2-5,2.2h-46.2C1279.7,263.5,1278.1,262.8,1276.7,261.3z"/>
	<path class="st2" d="M1370.1,250.1c-9.3-7.5-16.5-16.9-21.7-28.1c-5.2-11.2-7.8-23.3-7.8-36.2c0-12.9,2.6-25,7.7-36.2
		c5.1-11.2,12.4-20.6,21.7-28.1c9.3-7.5,20-12.4,32-14.6c2.5,0,4.4,0.5,5.6,1.5c1.6,1.7,2.4,3.7,2.4,6.1v15.8c0,1.7-0.5,3.2-1.5,4.5
		c-1,1.3-2.4,2.2-4.1,2.6c-10.5,2.7-18.9,8.3-25.1,16.8c-6.2,8.6-9.3,19.1-9.3,31.6c0,12.2,3.1,22.6,9.2,31.3
		c6.1,8.6,14.5,14.3,25.2,17c1.7,0.4,3.1,1.3,4.1,2.6c1,1.3,1.5,2.8,1.5,4.5V257c0,2.5-0.8,4.5-2.3,5.8c-1.5,1.3-3.4,2-5.7,2
		C1390,262.5,1379.4,257.7,1370.1,250.1z M1424.7,262.8c-1.5-1.3-2.3-3.3-2.3-5.8v-15.8c0-1.7,0.5-3.2,1.5-4.5
		c1-1.3,2.4-2.2,4.1-2.6c10.7-2.7,19-8.3,25.2-17c6.1-8.6,9.2-19.1,9.2-31.3c0-12.4-3.1-22.9-9.3-31.6c-6.2-8.7-14.6-14.3-25.1-16.8
		c-1.7-0.3-3.1-1.1-4.1-2.4c-1-1.3-1.5-2.9-1.5-4.7v-15.8c0-2.5,0.7-4.4,2.1-5.7c1.4-1.3,3.4-1.9,5.9-1.9
		c15.7,2.8,29.1,10.2,40.2,22.3c7.1,7.7,12.4,16.3,15.9,25.6c3.5,9.3,5.3,19.7,5.3,31.1c0,12.9-2.6,25-7.8,36.2
		c-5.2,11.2-12.4,20.6-21.7,28.1c-9.3,7.5-19.9,12.4-31.9,14.6C1428.1,264.8,1426.2,264.1,1424.7,262.8z"/>
	<path class="st2" d="M1532.4,249.2c-8.3-7.4-14.8-16.6-19.3-27.6c-4.5-11-6.8-22.9-6.8-35.8c0-12.9,2.3-24.9,6.8-35.9
		c4.5-11,11-20.2,19.3-27.6c8.3-7.4,18-12.2,29.1-14.4c0.4-0.1,0.9-0.2,1.6-0.2c1.5,0,2.9,0.6,4.4,1.7c1.7,1.4,2.6,3.3,2.6,5.7v16.4
		c0,1.5-0.5,3-1.5,4.4c-1,1.4-2.2,2.3-3.7,2.7c-9.5,2.7-16.7,8.3-21.8,16.8c-5.1,8.6-7.6,18.7-7.6,30.3c0,11.9,2.5,22,7.6,30.3
		c5.1,8.3,12.3,13.9,21.8,16.8c1.5,0.6,2.7,1.5,3.7,2.7c1,1.3,1.5,2.7,1.5,4.2v16.6c0,2.7-0.8,4.6-2.5,5.7c-1.7,1.1-3.7,1.7-6.1,1.7
		C1550.4,261.6,1540.7,256.6,1532.4,249.2z M1619,163.6c-1.2-0.8-2.1-1.9-2.6-3.3c-2.8-6.3-6.6-11.5-11.3-15.6
		c-4.7-4.1-10.3-6.7-16.7-7.8c-1.7-0.3-3.2-1.1-4.3-2.5c-1.1-1.4-1.7-3-1.7-4.8v-15.4c0-2.2,0.8-4,2.3-5.4c1.5-1.3,3.4-2,5.7-2
		c13.1,2.2,24.4,7.6,34.2,16c9.7,8.4,16.7,19.1,21,32c0.3,1.1,0.4,2,0.4,2.5c0,2.2-0.7,4-2.1,5.4c-1.4,1.3-3,2-4.9,2h-16
		C1621.5,164.7,1620.2,164.4,1619,163.6z M1584.7,262.9c-1.5-1.3-2.3-3.1-2.3-5.5V242c0-1.8,0.5-3.4,1.6-4.8
		c1.1-1.4,2.5-2.2,4.2-2.5c6.5-1.3,12.2-3.9,16.9-7.9c4.7-4,8.5-9.2,11.3-15.5c0.5-1.4,1.4-2.5,2.6-3.3c1.2-0.8,2.5-1.2,4-1.2h16
		c1.9,0,3.5,0.7,4.9,2c1.4,1.3,2.1,3.1,2.1,5.4c0,0.6-0.1,1.4-0.4,2.5c-4.3,13.1-11.3,23.8-21,32.2c-9.7,8.4-21.1,13.7-34.2,15.8
		C1588.2,264.8,1586.3,264.1,1584.7,262.9z"/>
	<path class="st2" d="M1669.1,261.3c-1.4-1.5-2.1-3.2-2.1-5.2V198c0-2.1,0.7-3.8,2.2-5.1l82.7-81.9c1.3-1.4,2.9-2.1,4.8-2.1h21.4
		c1.9,0,3.5,0.7,4.9,2.2c1.4,1.5,2.1,3.3,2.1,5.4c0,2-0.7,3.7-2.2,5.3l-46.4,45.9l56.1,84.2c0.9,1.4,1.4,2.8,1.4,4.2
		c0,2.1-0.7,3.9-2.1,5.3s-3,2.1-4.9,2.1h-18.8c-2.3,0-4.1-1.1-5.6-3.2l-47.4-71.8l-19.4,19.2v48.4c0,2-0.7,3.7-2.1,5.2
		c-1.4,1.5-3,2.2-4.9,2.2h-15C1672.1,263.5,1670.5,262.8,1669.1,261.3z M1669.1,160.1c-1.4-1.4-2.1-3.2-2.1-5.3v-38.5
		c0-2,0.7-3.7,2.1-5.2s3-2.2,4.9-2.2h15c1.9,0,3.5,0.7,4.9,2.2c1.4,1.5,2.1,3.2,2.1,5.2v38.5c0,2.1-0.7,3.9-2.1,5.3
		c-1.4,1.4-3,2.1-4.9,2.1h-15C1672.1,162.2,1670.5,161.5,1669.1,160.1z"/>
</g>
</svg>
