<?xml version="1.0" encoding="utf-8"?>
<!-- Generator: Adobe Illustrator 22.1.0, SVG Export Plug-In . SVG Version: 6.00 Build 0)  -->
<svg version="1.1" id="Layer_1" xmlns="http://www.w3.org/2000/svg" xmlns:xlink="http://www.w3.org/1999/xlink" x="0px" y="0px"
	 viewBox="0 0 350 425" style="enable-background:new 0 0 350 425;" xml:space="preserve">
<style type="text/css">
	.st0{display:none;fill:#FFFFFF;}
	.st1{display:none;fill:#FDD106;}
	.st2{fill:#00C6F6;}
	.st3{fill:#FFFFFF;}
	.st4{fill:#1E1E1E;}
</style>
<path class="st0" d="M309.3,266.8c0-41.9,0-80.1,0-121.9c0-11.7-4.2-15.6-10.8-19.4c-36.9-20.6-67.9-37.9-104.9-58.5
	c-8.1-4.5-13.4-7.1-18.7-7.4c-5.3,0.3-10.6,2.9-18.7,7.4c-36.9,20.6-67.9,37.9-104.9,58.5c-6.6,3.8-10.8,7.7-10.8,19.4v5l119.8,70
	v104L40.5,253.7v21.2l0,0c0.2,8.8,1.8,11.3,12.4,17.5c37.7,22,73.5,42.8,111.2,64.8c3.2,1.8,6.9,2.9,10.8,3c3.8-0.1,7.6-1.2,10.8-3
	c37.7-22,73.5-42.8,111.2-64.8C310.2,284.6,309.3,282.6,309.3,266.8z M174.9,191L83,138.4L174.9,87l91.9,51.4L174.9,191z
	 M282.5,269.7l-93,54.2v-104l93-54.2V269.7z"/>
<rect x="8.5" y="16.2" class="st1" width="328.6" height="322"/>
<g>
	<path class="st2" d="M335,0H15C6.7,0,0,6.7,0,15v395c0,8.2,6.7,15,15,15h320c8.2,0,15-6.7,15-15V15C350,6.7,343.3,0,335,0z
		 M336.5,375H17V17h319.5V375z"/>
	<path class="st3" d="M334.3,2H15.7C8.2,2,2,8.1,2,15.6v393.8c0,7.5,6.1,13.6,13.6,13.6h318.7c7.5,0,13.6-6.1,13.6-13.6V15.6
		C348,8.1,341.8,2,334.3,2z M326.6,325.3H23.1V22.5h303.5V325.3z"/>
</g>
<g>
	<path class="st2" d="M25.5,405.5c-0.3-0.3-0.4-0.7-0.4-1.1V391c0-0.4,0.1-0.8,0.4-1.1c0.3-0.3,0.6-0.5,1-0.5h12.2
		c3.4,0,5.1-1.6,5.1-4.7s-1.7-4.7-5.1-4.7H26.5c-0.4,0-0.7-0.2-1-0.5s-0.4-0.7-0.4-1.1v-3.1c0-0.4,0.1-0.8,0.4-1.1
		c0.3-0.3,0.6-0.5,1-0.5h12.4c2.2,0,4.1,0.5,5.7,1.4c1.6,0.9,2.9,2.2,3.8,3.8c0.9,1.6,1.3,3.5,1.3,5.7s-0.4,4.1-1.3,5.7
		c-0.9,1.6-2.2,2.9-3.8,3.8s-3.5,1.3-5.7,1.3H31v8.8c0,0.4-0.1,0.8-0.4,1.1c-0.3,0.3-0.6,0.5-1,0.5h-3.1
		C26.1,406,25.8,405.8,25.5,405.5z"/>
	<path class="st2" d="M54,405.6c-0.3-0.3-0.4-0.6-0.4-1v-16.2c0-0.4,0.1-0.8,0.4-1c0.3-0.3,0.6-0.4,1-0.4h17.7v-11.4
		c0-0.4,0.1-0.8,0.4-1c0.3-0.3,0.6-0.4,1-0.4h3.1c0.4,0,0.7,0.1,1,0.4s0.4,0.6,0.4,1v29.1c0,0.4-0.1,0.8-0.4,1
		c-0.3,0.3-0.6,0.4-1,0.4h-3c-0.4,0-0.8-0.1-1-0.4c-0.3-0.3-0.4-0.6-0.4-1v-11.4H59.6v11.4c0,0.4-0.1,0.8-0.4,1
		c-0.3,0.3-0.6,0.4-1,0.4h-3.1C54.7,406,54.3,405.9,54,405.6z M54,384.5c-0.3-0.3-0.4-0.7-0.4-1.1v-8c0-0.4,0.1-0.8,0.4-1
		c0.3-0.3,0.6-0.4,1-0.4h3.2c0.4,0,0.8,0.1,1,0.4c0.3,0.3,0.4,0.6,0.4,1v8c0,0.4-0.1,0.8-0.4,1.1c-0.3,0.3-0.6,0.5-1,0.5h-3.1
		C54.7,385,54.3,384.8,54,384.5z"/>
	<path class="st2" d="M89.5,403.2c-1.9-1.6-3.4-3.5-4.5-5.8s-1.6-4.8-1.6-7.5s0.5-5.2,1.6-7.5s2.6-4.3,4.5-5.8
		c1.9-1.6,4.1-2.6,6.6-3c0.5,0,0.9,0.1,1.2,0.3c0.3,0.3,0.5,0.8,0.5,1.3v3.3c0,0.3-0.1,0.7-0.3,0.9c-0.2,0.3-0.5,0.5-0.8,0.5
		c-2.2,0.6-3.9,1.7-5.2,3.5c-1.3,1.8-1.9,4-1.9,6.5s0.6,4.7,1.9,6.5s3,3,5.2,3.5c0.4,0.1,0.6,0.3,0.8,0.5c0.2,0.3,0.3,0.6,0.3,0.9
		v3.3c0,0.5-0.2,0.9-0.5,1.2c-0.3,0.3-0.7,0.4-1.2,0.4C93.7,405.8,91.5,404.8,89.5,403.2z M100.8,405.8c-0.3-0.3-0.5-0.7-0.5-1.2
		v-3.3c0-0.3,0.1-0.7,0.3-0.9c0.2-0.3,0.5-0.5,0.8-0.5c2.2-0.6,3.9-1.7,5.2-3.5c1.3-1.8,1.9-4,1.9-6.5c0-2.6-0.6-4.7-1.9-6.5
		s-3-3-5.2-3.5c-0.4-0.1-0.6-0.2-0.8-0.5c-0.2-0.3-0.3-0.6-0.3-1v-3.3c0-0.5,0.1-0.9,0.4-1.2c0.3-0.3,0.7-0.4,1.2-0.4
		c3.3,0.6,6,2.1,8.3,4.6c1.5,1.6,2.6,3.4,3.3,5.3c0.7,1.9,1.1,4.1,1.1,6.4c0,2.7-0.5,5.2-1.6,7.5s-2.6,4.3-4.5,5.8
		c-1.9,1.6-4.1,2.6-6.6,3C101.6,406.3,101.2,406.1,100.8,405.8z"/>
	<path class="st2" d="M116.3,379.7c-0.3-0.3-0.4-0.7-0.4-1.1v-3.1c0-0.4,0.1-0.8,0.4-1.1c0.3-0.3,0.6-0.5,1-0.5h4.2
		c0.4,0,0.8,0.2,1.1,0.5c0.3,0.3,0.4,0.7,0.4,1.1v3.1c0,0.4-0.1,0.8-0.4,1.1c-0.3,0.3-0.6,0.5-1.1,0.5h-4.2
		C116.9,380.2,116.5,380,116.3,379.7z M125.9,405.5c-0.3-0.3-0.4-0.7-0.4-1.1v-28.9c0-0.4,0.1-0.8,0.4-1.1c0.3-0.3,0.6-0.5,1.1-0.5
		h12.7c0.4,0,0.7,0.2,1,0.5s0.4,0.7,0.4,1.1v3.1c0,0.4-0.1,0.8-0.4,1.1c-0.3,0.3-0.6,0.5-1,0.5h-8.2v24.3c0,0.4-0.1,0.8-0.4,1.1
		c-0.3,0.3-0.6,0.5-1,0.5H127C126.5,406,126.1,405.8,125.9,405.5z"/>
	<path class="st2" d="M148.3,403.2c-1.9-1.6-3.4-3.5-4.5-5.8s-1.6-4.8-1.6-7.5s0.5-5.2,1.6-7.5s2.6-4.3,4.5-5.8
		c1.9-1.6,4.1-2.6,6.6-3c0.5,0,0.9,0.1,1.2,0.3c0.3,0.3,0.5,0.8,0.5,1.3v3.3c0,0.3-0.1,0.7-0.3,0.9c-0.2,0.3-0.5,0.5-0.8,0.5
		c-2.2,0.6-3.9,1.7-5.2,3.5s-1.9,4-1.9,6.5s0.6,4.7,1.9,6.5c1.3,1.8,3,3,5.2,3.5c0.4,0.1,0.6,0.3,0.8,0.5c0.2,0.3,0.3,0.6,0.3,0.9
		v3.3c0,0.5-0.2,0.9-0.5,1.2c-0.3,0.3-0.7,0.4-1.2,0.4C152.4,405.8,150.2,404.8,148.3,403.2z M159.6,405.8c-0.3-0.3-0.5-0.7-0.5-1.2
		v-3.3c0-0.3,0.1-0.7,0.3-0.9c0.2-0.3,0.5-0.5,0.8-0.5c2.2-0.6,3.9-1.7,5.2-3.5s1.9-4,1.9-6.5c0-2.6-0.6-4.7-1.9-6.5
		c-1.3-1.8-3-3-5.2-3.5c-0.4-0.1-0.6-0.2-0.8-0.5s-0.3-0.6-0.3-1v-3.3c0-0.5,0.1-0.9,0.4-1.2c0.3-0.3,0.7-0.4,1.2-0.4
		c3.3,0.6,6,2.1,8.3,4.6c1.5,1.6,2.6,3.4,3.3,5.3s1.1,4.1,1.1,6.4c0,2.7-0.5,5.2-1.6,7.5s-2.6,4.3-4.5,5.8c-1.9,1.6-4.1,2.6-6.6,3
		C160.3,406.3,159.9,406.1,159.6,405.8z"/>
	<path class="st2" d="M178.6,405.5c-0.3-0.3-0.4-0.7-0.4-1.1v-3.1c0-0.4,0.1-0.8,0.4-1c0.3-0.3,0.6-0.4,1-0.4h13.4
		c3,0,4.5-1.1,4.5-3.3c0-1.1-0.4-2-1.3-2.7c-0.9-0.6-2.1-1-3.5-1h-13.1c-0.4,0-0.7-0.2-1-0.5s-0.4-0.7-0.4-1.1v-3
		c0-0.4,0.1-0.8,0.4-1.1c0.3-0.3,0.6-0.5,1-0.5h12.3c2.8,0,4.1-1.1,4.1-3.3c0-2.3-1.3-3.5-3.8-3.5h-12.7c-0.4,0-0.7-0.1-1-0.4
		s-0.4-0.6-0.4-1v-3.1c0-0.4,0.1-0.8,0.4-1.1c0.3-0.3,0.6-0.5,1-0.5h12.3c2,0,3.7,0.4,5.3,1.1c1.5,0.8,2.7,1.8,3.6,3.2
		c0.9,1.4,1.3,3,1.3,4.8c0,2.6-0.7,4.7-2.2,6.3c1.1,0.8,2,1.8,2.7,3.1c0.6,1.3,1,2.7,1,4.3c0,1.8-0.4,3.4-1.2,4.8s-2.1,2.4-3.7,3.2
		c-1.6,0.8-3.6,1.2-5.9,1.2h-13.1C179.2,406,178.8,405.8,178.6,405.5z"/>
	<path class="st2" d="M209.3,405.5c-0.3-0.3-0.4-0.7-0.4-1.1v-29c0-0.4,0.1-0.8,0.4-1.1c0.3-0.3,0.6-0.5,1-0.5h3.1
		c0.4,0,0.7,0.2,1,0.5s0.4,0.7,0.4,1.1v29c0,0.4-0.1,0.8-0.4,1.1c-0.3,0.3-0.6,0.5-1,0.5h-3.1C210,406,209.6,405.8,209.3,405.5z
		 M217.9,405.5c-0.3-0.3-0.4-0.7-0.4-1.1v-3.1c0-0.4,0.1-0.8,0.4-1.1c0.3-0.3,0.6-0.5,1-0.5h9.6c0.4,0,0.8,0.2,1,0.5
		c0.3,0.3,0.4,0.7,0.4,1.1v3.1c0,0.4-0.1,0.8-0.4,1.1c-0.3,0.3-0.6,0.5-1,0.5h-9.6C218.5,406,218.1,405.8,217.9,405.5z"/>
	<path class="st2" d="M237.2,403.2c-1.9-1.6-3.4-3.5-4.5-5.8s-1.6-4.8-1.6-7.5s0.5-5.2,1.6-7.5s2.6-4.3,4.5-5.8
		c1.9-1.6,4.1-2.6,6.6-3c0.5,0,0.9,0.1,1.2,0.3c0.3,0.3,0.5,0.8,0.5,1.3v3.3c0,0.3-0.1,0.7-0.3,0.9c-0.2,0.3-0.5,0.5-0.8,0.5
		c-2.2,0.6-3.9,1.7-5.2,3.5s-1.9,4-1.9,6.5s0.6,4.7,1.9,6.5c1.3,1.8,3,3,5.2,3.5c0.4,0.1,0.6,0.3,0.8,0.5c0.2,0.3,0.3,0.6,0.3,0.9
		v3.3c0,0.5-0.2,0.9-0.5,1.2c-0.3,0.3-0.7,0.4-1.2,0.4C241.3,405.8,239.1,404.8,237.2,403.2z M248.5,405.8c-0.3-0.3-0.5-0.7-0.5-1.2
		v-3.3c0-0.3,0.1-0.7,0.3-0.9c0.2-0.3,0.5-0.5,0.8-0.5c2.2-0.6,3.9-1.7,5.2-3.5s1.9-4,1.9-6.5c0-2.6-0.6-4.7-1.9-6.5
		c-1.3-1.8-3-3-5.2-3.5c-0.4-0.1-0.6-0.2-0.8-0.5s-0.3-0.6-0.3-1v-3.3c0-0.5,0.1-0.9,0.4-1.2c0.3-0.3,0.7-0.4,1.2-0.4
		c3.3,0.6,6,2.1,8.3,4.6c1.5,1.6,2.6,3.4,3.3,5.3c0.7,1.9,1.1,4.1,1.1,6.4c0,2.7-0.5,5.2-1.6,7.5s-2.6,4.3-4.5,5.8
		c-1.9,1.6-4.1,2.6-6.6,3C249.2,406.3,248.8,406.1,248.5,405.8z"/>
	<path class="st2" d="M270.8,403c-1.7-1.5-3.1-3.4-4-5.7c-0.9-2.3-1.4-4.7-1.4-7.4c0-2.7,0.5-5.2,1.4-7.4c0.9-2.3,2.3-4.2,4-5.7
		s3.7-2.5,6-3c0.1,0,0.2,0,0.3,0c0.3,0,0.6,0.1,0.9,0.3c0.4,0.3,0.5,0.7,0.5,1.2v3.4c0,0.3-0.1,0.6-0.3,0.9
		c-0.2,0.3-0.5,0.5-0.8,0.6c-2,0.6-3.5,1.7-4.5,3.5s-1.6,3.9-1.6,6.3c0,2.5,0.5,4.6,1.6,6.3c1,1.7,2.6,2.9,4.5,3.5
		c0.3,0.1,0.6,0.3,0.8,0.6c0.2,0.3,0.3,0.6,0.3,0.9v3.4c0,0.6-0.2,0.9-0.5,1.2c-0.3,0.2-0.8,0.3-1.3,0.3
		C274.5,405.6,272.5,404.6,270.8,403z M288.8,385.3c-0.2-0.2-0.4-0.4-0.5-0.7c-0.6-1.3-1.4-2.4-2.3-3.2c-1-0.8-2.1-1.4-3.5-1.6
		c-0.4-0.1-0.7-0.2-0.9-0.5c-0.2-0.3-0.4-0.6-0.4-1v-3.2c0-0.5,0.2-0.8,0.5-1.1c0.3-0.3,0.7-0.4,1.2-0.4c2.7,0.5,5.1,1.6,7.1,3.3
		c2,1.7,3.5,4,4.3,6.6c0.1,0.2,0.1,0.4,0.1,0.5c0,0.5-0.1,0.8-0.4,1.1c-0.3,0.3-0.6,0.4-1,0.4h-3.3
		C289.2,385.5,288.9,385.4,288.8,385.3z M281.6,405.9c-0.3-0.3-0.5-0.6-0.5-1.1v-3.2c0-0.4,0.1-0.7,0.3-1c0.2-0.3,0.5-0.5,0.9-0.5
		c1.4-0.3,2.5-0.8,3.5-1.6c1-0.8,1.8-1.9,2.3-3.2c0.1-0.3,0.3-0.5,0.5-0.7s0.5-0.2,0.8-0.2h3.3c0.4,0,0.7,0.1,1,0.4s0.4,0.6,0.4,1.1
		c0,0.1,0,0.3-0.1,0.5c-0.9,2.7-2.3,4.9-4.3,6.7c-2,1.7-4.4,2.8-7.1,3.3C282.4,406.3,281.9,406.1,281.6,405.9z"/>
	<path class="st2" d="M299.1,405.5c-0.3-0.3-0.4-0.7-0.4-1.1v-12c0-0.4,0.2-0.8,0.5-1l17.1-17c0.3-0.3,0.6-0.4,1-0.4h4.4
		c0.4,0,0.7,0.2,1,0.5s0.4,0.7,0.4,1.1s-0.2,0.8-0.5,1.1l-9.6,9.5l11.6,17.5c0.2,0.3,0.3,0.6,0.3,0.9c0,0.4-0.1,0.8-0.4,1.1
		c-0.3,0.3-0.6,0.4-1,0.4h-3.9c-0.5,0-0.9-0.2-1.2-0.7l-9.8-14.9l-4,4v10c0,0.4-0.1,0.8-0.4,1.1c-0.3,0.3-0.6,0.5-1,0.5h-3.1
		C299.8,406,299.4,405.8,299.1,405.5z M299.1,384.6c-0.3-0.3-0.4-0.7-0.4-1.1v-8c0-0.4,0.1-0.8,0.4-1.1c0.3-0.3,0.6-0.5,1-0.5h3.1
		c0.4,0,0.7,0.2,1,0.5s0.4,0.7,0.4,1.1v8c0,0.4-0.1,0.8-0.4,1.1c-0.3,0.3-0.6,0.4-1,0.4h-3.1C299.8,385,299.4,384.9,299.1,384.6z"/>
</g>
<g>
	<path class="st4" d="M136.7,357.6c-0.4,0-0.8,0-1.2-0.1c-0.4,0-0.9-0.1-1.3-0.2c-0.4-0.1-0.9-0.2-1.3-0.3c-0.4-0.1-0.8-0.2-1.1-0.3
		c-0.3-0.1-0.4-0.2-0.5-0.3c-0.1-0.1-0.1-0.3-0.1-0.6l0.3-1.6c0-0.3,0.1-0.4,0.3-0.5c0.2-0.1,0.3,0,0.5,0c0.3,0.1,0.6,0.2,1,0.3
		c0.4,0.1,0.7,0.2,1.1,0.3c0.4,0.1,0.8,0.2,1.1,0.2c0.4,0,0.7,0.1,1.1,0.1c0.7,0,1.2,0,1.7-0.1c0.4-0.1,0.8-0.3,1.1-0.5
		c0.2-0.2,0.4-0.4,0.5-0.7c0.1-0.3,0.1-0.7,0.1-1.1v-0.2c0-0.7-0.1-1.2-0.3-1.5c-0.2-0.2-0.4-0.4-0.7-0.5s-0.7-0.3-1.2-0.4l-2-0.4
		c-0.9-0.2-1.6-0.4-2.1-0.7s-1-0.6-1.3-1c-0.7-0.8-1.1-1.9-1.1-3.5v-0.4c0-1.8,0.6-3.1,1.7-3.9c0.5-0.4,1.2-0.7,2-0.8
		c0.8-0.2,1.7-0.3,2.8-0.3c0.4,0,0.9,0,1.3,0.1s0.9,0.1,1.3,0.2c0.4,0.1,0.8,0.1,1.1,0.2c0.4,0.1,0.7,0.2,0.9,0.2
		c0.2,0.1,0.4,0.2,0.5,0.3s0.1,0.3,0,0.6l-0.4,1.8c-0.1,0.4-0.4,0.5-0.9,0.3c-0.6-0.2-1.3-0.4-1.9-0.5c-0.6-0.1-1.2-0.2-1.8-0.2
		c-0.6,0-1.1,0-1.4,0.1c-0.4,0.1-0.6,0.2-0.8,0.3s-0.4,0.4-0.5,0.6c-0.1,0.3-0.2,0.6-0.2,1.1v0.2c0,0.4,0,0.7,0.1,0.9
		c0.1,0.2,0.2,0.4,0.4,0.6c0.2,0.2,0.4,0.3,0.8,0.5s0.7,0.2,1.1,0.3l2.1,0.4c0.9,0.2,1.6,0.4,2.1,0.7c0.6,0.3,1,0.6,1.4,1.1
		c0.3,0.4,0.5,0.9,0.7,1.4c0.1,0.5,0.2,1.2,0.2,1.9v0.4c0,0.9-0.1,1.7-0.4,2.4s-0.6,1.3-1.2,1.8c-0.6,0.5-1.3,0.8-2.1,1
		C139,357.5,137.9,357.6,136.7,357.6z"/>
	<path class="st4" d="M150.2,356.6c0,0.3,0,0.5-0.1,0.6c-0.1,0.1-0.3,0.1-0.6,0.1h-2.1c-0.3,0-0.5,0-0.6-0.1
		c-0.1-0.1-0.1-0.3-0.1-0.6v-17c0-0.3,0-0.5,0.1-0.6c0.1-0.1,0.3-0.1,0.6-0.1h2.1c0.3,0,0.5,0,0.6,0.1c0.1,0.1,0.1,0.3,0.1,0.6
		V356.6z"/>
	<path class="st4" d="M167,339.7c0.3,0.2,0.4,0.5,0.3,0.9l-0.5,1.6c-0.1,0.2-0.2,0.3-0.3,0.4c-0.2,0-0.3,0-0.5-0.1
		c-0.5-0.3-1.2-0.5-1.9-0.7c-0.8-0.2-1.5-0.3-2.2-0.3c-0.7,0-1.4,0.1-1.9,0.2c-0.5,0.2-1,0.4-1.4,0.8c-0.4,0.5-0.7,1.1-0.9,1.9
		c-0.2,0.8-0.3,1.9-0.3,3.2v0.6c0,0.7,0,1.3,0,1.8c0,0.5,0.1,1,0.1,1.4c0.1,0.4,0.2,0.8,0.3,1c0.1,0.3,0.3,0.6,0.4,0.8
		c0.3,0.4,0.8,0.7,1.3,0.9s1.2,0.3,2,0.3c0.5,0,0.9,0,1.3,0c0.4,0,0.7,0,0.9-0.1c0.2,0,0.3-0.1,0.4-0.2c0.1-0.1,0.1-0.2,0.1-0.4
		v-4.2h-2.1c-0.3,0-0.5,0-0.6-0.1c-0.1-0.1-0.2-0.3-0.2-0.5v-1.6c0-0.3,0.1-0.4,0.2-0.6s0.3-0.2,0.6-0.2h5c0.3,0,0.4,0.1,0.5,0.2
		c0.1,0.1,0.1,0.3,0.1,0.5v8.2c0,0.3,0,0.6-0.1,0.7c-0.1,0.1-0.3,0.3-0.6,0.4c-0.8,0.2-1.7,0.4-2.6,0.5c-1,0.1-1.9,0.2-2.7,0.2
		c-1.6,0-2.8-0.1-3.8-0.4c-0.9-0.3-1.7-0.7-2.4-1.4c-0.7-0.7-1.2-1.6-1.5-2.8c-0.3-1.2-0.4-2.6-0.4-4.4v-1.1c0-3.4,0.7-5.8,2.2-7.2
		c0.7-0.6,1.5-1.1,2.5-1.3s2.2-0.4,3.5-0.4c0.5,0,0.9,0,1.4,0.1c0.5,0.1,0.9,0.1,1.4,0.2c0.4,0.1,0.9,0.2,1.3,0.4
		C166.4,339.4,166.7,339.6,167,339.7z"/>
	<path class="st4" d="M171.2,339.6c0-0.3,0-0.5,0.1-0.6c0.1-0.1,0.3-0.1,0.6-0.1h1.7c0.4,0,0.7,0,0.9,0.1s0.4,0.3,0.5,0.5l7.1,11.7
		h0.1v-11.7c0-0.3,0-0.5,0.1-0.6s0.3-0.1,0.6-0.1h1.8c0.3,0,0.5,0,0.6,0.1c0.1,0.1,0.1,0.3,0.1,0.6v17c0,0.3,0,0.5-0.1,0.6
		c-0.1,0.1-0.3,0.1-0.6,0.1h-1.7c-0.4,0-0.7,0-0.9-0.1c-0.2-0.1-0.4-0.3-0.5-0.5l-7.1-11.5h-0.1v11.5c0,0.3,0,0.5-0.1,0.6
		c-0.1,0.1-0.3,0.1-0.6,0.1h-1.8c-0.3,0-0.5,0-0.6-0.1c-0.1-0.1-0.1-0.3-0.1-0.6V339.6z"/>
	<path class="st4" d="M199.6,356.6c0,0.3,0,0.5-0.1,0.6c-0.1,0.1-0.3,0.1-0.6,0.1h-2.1c-0.3,0-0.5,0-0.6-0.1
		c-0.1-0.1-0.1-0.3-0.1-0.6v-17c0-0.3,0-0.5,0.1-0.6c0.1-0.1,0.3-0.1,0.6-0.1h2.1c0.3,0,0.5,0,0.6,0.1s0.1,0.3,0.1,0.6V356.6z"/>
	<path class="st4" d="M203.6,339.6c0-0.3,0-0.5,0.1-0.6c0.1-0.1,0.3-0.1,0.6-0.1h1.7c0.4,0,0.7,0,0.9,0.1c0.2,0.1,0.4,0.3,0.5,0.5
		l7.1,11.7h0.1v-11.7c0-0.3,0-0.5,0.1-0.6c0.1-0.1,0.3-0.1,0.6-0.1h1.8c0.3,0,0.5,0,0.6,0.1s0.1,0.3,0.1,0.6v17c0,0.3,0,0.5-0.1,0.6
		c-0.1,0.1-0.3,0.1-0.6,0.1h-1.7c-0.4,0-0.7,0-0.9-0.1c-0.2-0.1-0.4-0.3-0.5-0.5l-7.1-11.5h-0.1v11.5c0,0.3,0,0.5-0.1,0.6
		c-0.1,0.1-0.3,0.1-0.6,0.1h-1.8c-0.3,0-0.5,0-0.6-0.1c-0.1-0.1-0.1-0.3-0.1-0.6V339.6z"/>
</g>
</svg>
