<?xml version="1.0" encoding="utf-8"?>
<!-- Generator: Adobe Illustrator 22.1.0, SVG Export Plug-In . SVG Version: 6.00 Build 0)  -->
<svg version="1.1" id="Layer_1" xmlns="http://www.w3.org/2000/svg" xmlns:xlink="http://www.w3.org/1999/xlink" x="0px" y="0px"
	 viewBox="0 0 300 300" style="enable-background:new 0 0 300 300;" xml:space="preserve">
<style type="text/css">
	.st0{fill:#FBD00A;}
	.st1{fill-rule:evenodd;clip-rule:evenodd;fill:#FFFFFF;}
</style>
<g>
	<rect class="st0" width="300" height="300"/>
	<path class="st1" d="M284.4,242.7c0-41.9,0-80.1,0-121.9c0-11.7-4.2-15.6-10.8-19.4c-36.9-20.6-67.9-37.9-104.9-58.5
		c-8.1-4.5-13.4-7.1-18.7-7.4c-5.3,0.3-10.6,2.9-18.7,7.4C94.3,63.5,63.3,80.7,26.4,101.3c-6.6,3.8-10.8,7.7-10.8,19.4v5l119.8,70
		v104L15.6,229.6v21.2h0c0.2,8.8,1.8,11.3,12.4,17.5c37.7,22,73.5,42.8,111.2,64.8c3.2,1.8,6.9,2.9,10.8,3c3.8-0.1,7.6-1.2,10.8-3
		c37.7-22,73.5-42.8,111.2-64.8C285.3,260.5,284.4,258.5,284.4,242.7z M150,166.9l-91.9-52.6L150,62.9l91.9,51.4L150,166.9z
		 M257.6,245.6l-93,54.2v-104l93-54.2V245.6z"/>
</g>
</svg>
