<?xml version="1.0" encoding="utf-8"?>
<!-- Generator: Adobe Illustrator 22.1.0, SVG Export Plug-In . SVG Version: 6.00 Build 0)  -->
<svg version="1.1" id="Layer_1" xmlns="http://www.w3.org/2000/svg" xmlns:xlink="http://www.w3.org/1999/xlink" x="0px" y="0px"
	 viewBox="0 0 425 175" style="enable-background:new 0 0 425 175;" xml:space="preserve">
<style type="text/css">
	.st0{fill:#FFFFFF;}
	.st1{fill:none;stroke:#00C6F6;stroke-width:1.9885;stroke-miterlimit:10;}
	.st2{display:none;fill:#FFFFFF;}
	.st3{display:none;fill:#FDD106;}
	.st4{fill:#00C6F6;}
	.st5{fill:#1E1E1E;}
</style>
<path class="st0" d="M414.1,1.2h-403c-5.4,0-9.9,4.5-9.9,9.9v152.6c0,5.4,4.5,9.9,9.9,9.9h403c5.4,0,9.9-4.5,9.9-9.9V11.1
	C424,5.7,419.6,1.2,414.1,1.2z M159.2,160H13.5V14.3h145.7V160z"/>
<path class="st1" d="M414.3,173.5h-403c-5.4,0-9.9-4.5-9.9-9.9V11c0-5.4,4.5-9.9,9.9-9.9h403c5.4,0,9.9,4.5,9.9,9.9v152.6
	C424.2,169.1,419.7,173.5,414.3,173.5z"/>
<path class="st2" d="M346.8,141.8c0-41.9,0-80.1,0-121.9c0-11.7-4.2-15.6-10.8-19.4C299.1-20.1,268.1-37.4,231.1-58
	c-8.1-4.5-13.4-7.1-18.7-7.4c-5.3,0.3-10.6,2.9-18.7,7.4C156.8-37.4,125.8-20.1,88.8,0.5C82.2,4.3,78,8.2,78,19.9v5l119.8,70v104
	L78,128.7v21.2l0,0c0.2,8.8,1.8,11.3,12.4,17.5c37.7,22,73.5,42.8,111.2,64.8c3.2,1.8,6.9,2.9,10.8,3c3.8-0.1,7.6-1.2,10.8-3
	c37.7-22,73.5-42.8,111.2-64.8C347.7,159.6,346.8,157.6,346.8,141.8z M212.4,66l-91.9-52.6L212.4-38l91.9,51.4L212.4,66z M320,144.7
	l-93,54.2v-104l93-54.2V144.7z"/>
<rect x="46" y="-108.8" class="st3" width="328.6" height="322"/>
<g>
	<path class="st4" d="M172.5,158.5c-0.2-0.2-0.3-0.6-0.3-0.9V147c0-0.3,0.1-0.6,0.3-0.9c0.2-0.2,0.5-0.4,0.8-0.4h9.7
		c2.7,0,4.1-1.3,4.1-3.7c0-2.5-1.4-3.7-4.1-3.7h-9.7c-0.3,0-0.6-0.2-0.8-0.4s-0.3-0.6-0.3-0.9v-2.5c0-0.3,0.1-0.6,0.3-0.9
		c0.2-0.2,0.5-0.4,0.8-0.4h9.9c1.8,0,3.3,0.4,4.5,1.1c1.3,0.7,2.3,1.8,3,3c0.7,1.3,1,2.8,1,4.5s-0.3,3.3-1,4.5s-1.8,2.3-3,3
		c-1.3,0.7-2.8,1-4.5,1h-6.3v7c0,0.3-0.1,0.6-0.3,0.9c-0.2,0.2-0.5,0.4-0.8,0.4h-2.5C173,158.9,172.7,158.8,172.5,158.5z"/>
	<path class="st4" d="M195.2,158.6c-0.2-0.2-0.3-0.5-0.3-0.8v-12.9c0-0.3,0.1-0.6,0.3-0.8c0.2-0.2,0.5-0.3,0.8-0.3h14.1v-9.1
		c0-0.3,0.1-0.6,0.3-0.8c0.2-0.2,0.5-0.3,0.8-0.3h2.5c0.3,0,0.6,0.1,0.8,0.3c0.2,0.2,0.3,0.5,0.3,0.8v23.2c0,0.3-0.1,0.6-0.3,0.8
		c-0.2,0.2-0.5,0.3-0.8,0.3h-2.4c-0.3,0-0.6-0.1-0.8-0.3c-0.2-0.2-0.3-0.5-0.3-0.8v-9.1h-10.5v9.1c0,0.3-0.1,0.6-0.3,0.8
		c-0.2,0.2-0.5,0.3-0.8,0.3h-2.5C195.8,158.9,195.4,158.9,195.2,158.6z M195.2,141.8c-0.2-0.2-0.3-0.6-0.3-0.9v-6.4
		c0-0.3,0.1-0.6,0.3-0.8c0.2-0.2,0.5-0.3,0.8-0.3h2.5c0.3,0,0.6,0.1,0.8,0.3c0.2,0.2,0.3,0.5,0.3,0.8v6.4c0,0.3-0.1,0.6-0.3,0.9
		c-0.2,0.2-0.5,0.4-0.8,0.4h-2.5C195.8,142.2,195.4,142.1,195.2,141.8z"/>
	<path class="st4" d="M223.5,156.7c-1.5-1.3-2.7-2.8-3.6-4.6c-0.9-1.8-1.3-3.8-1.3-6c0-2.2,0.4-4.1,1.3-6c0.9-1.8,2.1-3.4,3.6-4.6
		c1.5-1.3,3.3-2.1,5.3-2.4c0.4,0,0.7,0.1,1,0.2c0.2,0.2,0.4,0.6,0.4,1v2.6c0,0.2-0.1,0.6-0.2,0.7c-0.2,0.2-0.4,0.4-0.6,0.4
		c-1.8,0.5-3.1,1.4-4.1,2.8c-1,1.4-1.5,3.2-1.5,5.2c0,2,0.5,3.7,1.5,5.2c1,1.4,2.4,2.4,4.1,2.8c0.3,0.1,0.5,0.2,0.6,0.4
		c0.2,0.2,0.2,0.5,0.2,0.7v2.6c0,0.4-0.2,0.7-0.4,1c-0.2,0.2-0.6,0.3-1,0.3C226.8,158.8,225.1,158,223.5,156.7z M232.5,158.8
		c-0.2-0.2-0.4-0.6-0.4-1v-2.6c0-0.2,0.1-0.6,0.2-0.7c0.2-0.2,0.4-0.4,0.6-0.4c1.8-0.5,3.1-1.4,4.1-2.8c1-1.4,1.5-3.2,1.5-5.2
		c0-2.1-0.5-3.7-1.5-5.2c-1-1.4-2.4-2.4-4.1-2.8c-0.3-0.1-0.5-0.2-0.6-0.4c-0.2-0.2-0.2-0.5-0.2-0.8v-2.6c0-0.4,0.1-0.7,0.3-1
		c0.2-0.2,0.6-0.3,1-0.3c2.6,0.5,4.8,1.7,6.6,3.7c1.2,1.3,2.1,2.7,2.6,4.2c0.6,1.5,0.9,3.3,0.9,5.1c0,2.2-0.4,4.1-1.3,6
		c-0.9,1.8-2.1,3.4-3.6,4.6c-1.5,1.3-3.3,2.1-5.3,2.4C233.1,159.2,232.8,159,232.5,158.8z"/>
	<path class="st4" d="M244.8,138c-0.2-0.2-0.3-0.6-0.3-0.9v-2.5c0-0.3,0.1-0.6,0.3-0.9c0.2-0.2,0.5-0.4,0.8-0.4h3.3
		c0.3,0,0.6,0.2,0.9,0.4c0.2,0.2,0.3,0.6,0.3,0.9v2.5c0,0.3-0.1,0.6-0.3,0.9c-0.2,0.2-0.5,0.4-0.9,0.4h-3.3
		C245.3,138.4,245,138.2,244.8,138z M252.5,158.5c-0.2-0.2-0.3-0.6-0.3-0.9v-23c0-0.3,0.1-0.6,0.3-0.9c0.2-0.2,0.5-0.4,0.9-0.4h10.1
		c0.3,0,0.6,0.2,0.8,0.4c0.2,0.2,0.3,0.6,0.3,0.9v2.5c0,0.3-0.1,0.6-0.3,0.9c-0.2,0.2-0.5,0.4-0.8,0.4H257v19.4
		c0,0.3-0.1,0.6-0.3,0.9c-0.2,0.2-0.5,0.4-0.8,0.4h-2.5C253,158.9,252.6,158.8,252.5,158.5z"/>
	<path class="st4" d="M270.3,156.7c-1.5-1.3-2.7-2.8-3.6-4.6s-1.3-3.8-1.3-6c0-2.2,0.4-4.1,1.3-6s2.1-3.4,3.6-4.6
		c1.5-1.3,3.3-2.1,5.3-2.4c0.4,0,0.7,0.1,1,0.2c0.2,0.2,0.4,0.6,0.4,1v2.6c0,0.2-0.1,0.6-0.2,0.7c-0.2,0.2-0.4,0.4-0.6,0.4
		c-1.8,0.5-3.1,1.4-4.1,2.8s-1.5,3.2-1.5,5.2c0,2,0.5,3.7,1.5,5.2c1,1.4,2.4,2.4,4.1,2.8c0.3,0.1,0.5,0.2,0.6,0.4
		c0.2,0.2,0.2,0.5,0.2,0.7v2.6c0,0.4-0.2,0.7-0.4,1c-0.2,0.2-0.6,0.3-1,0.3C273.6,158.8,271.9,158,270.3,156.7z M279.3,158.8
		c-0.2-0.2-0.4-0.6-0.4-1v-2.6c0-0.2,0.1-0.6,0.2-0.7c0.2-0.2,0.4-0.4,0.6-0.4c1.8-0.5,3.1-1.4,4.1-2.8c1-1.4,1.5-3.2,1.5-5.2
		c0-2.1-0.5-3.7-1.5-5.2s-2.4-2.4-4.1-2.8c-0.3-0.1-0.5-0.2-0.6-0.4c-0.2-0.2-0.2-0.5-0.2-0.8v-2.6c0-0.4,0.1-0.7,0.3-1
		c0.2-0.2,0.6-0.3,1-0.3c2.6,0.5,4.8,1.7,6.6,3.7c1.2,1.3,2.1,2.7,2.6,4.2s0.9,3.3,0.9,5.1c0,2.2-0.4,4.1-1.3,6s-2.1,3.4-3.6,4.6
		c-1.5,1.3-3.3,2.1-5.3,2.4C279.9,159.2,279.6,159,279.3,158.8z"/>
	<path class="st4" d="M294.5,158.5c-0.2-0.2-0.3-0.6-0.3-0.9v-2.5c0-0.3,0.1-0.6,0.3-0.8c0.2-0.2,0.5-0.3,0.8-0.3H306
		c2.4,0,3.6-0.9,3.6-2.6c0-0.9-0.3-1.6-1-2.2c-0.7-0.5-1.7-0.8-2.8-0.8h-10.4c-0.3,0-0.6-0.2-0.8-0.4c-0.2-0.2-0.3-0.6-0.3-0.9v-2.4
		c0-0.3,0.1-0.6,0.3-0.9c0.2-0.2,0.5-0.4,0.8-0.4h9.8c2.2,0,3.3-0.9,3.3-2.6c0-1.8-1-2.8-3-2.8h-10.1c-0.3,0-0.6-0.1-0.8-0.3
		c-0.2-0.2-0.3-0.5-0.3-0.8v-2.5c0-0.3,0.1-0.6,0.3-0.9c0.2-0.2,0.5-0.4,0.8-0.4h9.8c1.6,0,2.9,0.3,4.2,0.9c1.2,0.6,2.2,1.4,2.9,2.5
		c0.7,1.1,1,2.4,1,3.8c0,2.1-0.6,3.7-1.8,5c0.9,0.6,1.6,1.4,2.2,2.5c0.5,1,0.8,2.2,0.8,3.4c0,1.4-0.3,2.7-1,3.8
		c-0.6,1.1-1.7,1.9-2.9,2.5c-1.3,0.6-2.9,1-4.7,1h-10.4C295,158.9,294.6,158.8,294.5,158.5z"/>
	<path class="st4" d="M318.9,158.5c-0.2-0.2-0.3-0.6-0.3-0.9v-23.1c0-0.3,0.1-0.6,0.3-0.9c0.2-0.2,0.5-0.4,0.8-0.4h2.5
		c0.3,0,0.6,0.2,0.8,0.4c0.2,0.2,0.3,0.6,0.3,0.9v23.1c0,0.3-0.1,0.6-0.3,0.9c-0.2,0.2-0.5,0.4-0.8,0.4h-2.5
		C319.5,158.9,319.2,158.8,318.9,158.5z M325.8,158.5c-0.2-0.2-0.3-0.6-0.3-0.9v-2.5c0-0.3,0.1-0.6,0.3-0.9c0.2-0.2,0.5-0.4,0.8-0.4
		h7.6c0.3,0,0.6,0.2,0.8,0.4c0.2,0.2,0.3,0.6,0.3,0.9v2.5c0,0.3-0.1,0.6-0.3,0.9c-0.2,0.2-0.5,0.4-0.8,0.4h-7.6
		C326.3,158.9,326,158.8,325.8,158.5z"/>
	<path class="st4" d="M341.2,156.7c-1.5-1.3-2.7-2.8-3.6-4.6s-1.3-3.8-1.3-6c0-2.2,0.4-4.1,1.3-6s2.1-3.4,3.6-4.6
		c1.5-1.3,3.3-2.1,5.3-2.4c0.4,0,0.7,0.1,1,0.2c0.2,0.2,0.4,0.6,0.4,1v2.6c0,0.2-0.1,0.6-0.2,0.7c-0.2,0.2-0.4,0.4-0.6,0.4
		c-1.8,0.5-3.1,1.4-4.1,2.8c-1,1.4-1.5,3.2-1.5,5.2c0,2,0.5,3.7,1.5,5.2c1,1.4,2.4,2.4,4.1,2.8c0.3,0.1,0.5,0.2,0.6,0.4
		c0.2,0.2,0.2,0.5,0.2,0.7v2.6c0,0.4-0.2,0.7-0.4,1c-0.2,0.2-0.6,0.3-1,0.3C344.4,158.8,342.7,158,341.2,156.7z M350.2,158.8
		c-0.2-0.2-0.4-0.6-0.4-1v-2.6c0-0.2,0.1-0.6,0.2-0.7c0.2-0.2,0.4-0.4,0.6-0.4c1.8-0.5,3.1-1.4,4.1-2.8c1-1.4,1.5-3.2,1.5-5.2
		c0-2.1-0.5-3.7-1.5-5.2s-2.4-2.4-4.1-2.8c-0.3-0.1-0.5-0.2-0.6-0.4s-0.2-0.5-0.2-0.8v-2.6c0-0.4,0.1-0.7,0.3-1
		c0.2-0.2,0.6-0.3,1-0.3c2.6,0.5,4.8,1.7,6.6,3.7c1.2,1.3,2.1,2.7,2.6,4.2s0.9,3.3,0.9,5.1c0,2.2-0.4,4.1-1.3,6s-2.1,3.4-3.6,4.6
		c-1.5,1.3-3.3,2.1-5.3,2.4C350.7,159.2,350.4,159,350.2,158.8z"/>
	<path class="st4" d="M368,156.6c-1.4-1.2-2.5-2.7-3.2-4.5c-0.7-1.8-1.1-3.7-1.1-5.9c0-2.2,0.4-4.1,1.1-5.9c0.7-1.8,1.8-3.3,3.2-4.5
		c1.4-1.2,2.9-2,4.8-2.4c0.1,0,0.2,0,0.2,0c0.2,0,0.5,0.1,0.7,0.2c0.3,0.2,0.4,0.6,0.4,1v2.7c0,0.2-0.1,0.5-0.2,0.7
		c-0.2,0.2-0.4,0.4-0.6,0.5c-1.6,0.5-2.8,1.4-3.6,2.8c-0.8,1.4-1.3,3.1-1.3,5c0,2,0.4,3.7,1.3,5c0.8,1.4,2.1,2.3,3.6,2.8
		c0.2,0.1,0.5,0.2,0.6,0.5c0.2,0.2,0.2,0.5,0.2,0.7v2.7c0,0.5-0.2,0.7-0.4,1c-0.2,0.2-0.6,0.2-1,0.2
		C370.9,158.6,369.3,157.8,368,156.6z M382.3,142.5c-0.2-0.2-0.3-0.3-0.4-0.6c-0.5-1-1.1-1.9-1.8-2.5c-0.8-0.6-1.7-1.1-2.8-1.3
		c-0.3-0.1-0.6-0.2-0.7-0.4c-0.2-0.2-0.3-0.5-0.3-0.8v-2.5c0-0.4,0.2-0.6,0.4-0.9c0.2-0.2,0.6-0.3,1-0.3c2.2,0.4,4.1,1.3,5.7,2.6
		c1.6,1.4,2.8,3.2,3.4,5.3c0.1,0.2,0.1,0.3,0.1,0.4c0,0.4-0.1,0.6-0.3,0.9c-0.2,0.2-0.5,0.3-0.8,0.3H383
		C382.6,142.6,382.4,142.5,382.3,142.5z M376.6,158.9c-0.2-0.2-0.4-0.5-0.4-0.9v-2.5c0-0.3,0.1-0.6,0.2-0.8c0.2-0.2,0.4-0.4,0.7-0.4
		c1.1-0.2,2-0.6,2.8-1.3c0.8-0.6,1.4-1.5,1.8-2.5c0.1-0.2,0.2-0.4,0.4-0.6c0.2-0.2,0.4-0.2,0.6-0.2h2.6c0.3,0,0.6,0.1,0.8,0.3
		c0.2,0.2,0.3,0.5,0.3,0.9c0,0.1,0,0.2-0.1,0.4c-0.7,2.2-1.8,3.9-3.4,5.3c-1.6,1.4-3.5,2.2-5.7,2.6
		C377.2,159.2,376.8,159,376.6,158.9z"/>
	<path class="st4" d="M390.5,158.5c-0.2-0.2-0.3-0.6-0.3-0.9v-9.6c0-0.3,0.2-0.6,0.4-0.8l13.6-13.5c0.2-0.2,0.5-0.3,0.8-0.3h3.5
		c0.3,0,0.6,0.2,0.8,0.4c0.2,0.2,0.3,0.6,0.3,0.9s-0.2,0.6-0.4,0.9l-7.6,7.6l9.2,13.9c0.2,0.2,0.2,0.5,0.2,0.7
		c0,0.3-0.1,0.6-0.3,0.9c-0.2,0.2-0.5,0.3-0.8,0.3h-3.1c-0.4,0-0.7-0.2-1-0.6l-7.8-11.9l-3.2,3.2v8c0,0.3-0.1,0.6-0.3,0.9
		c-0.2,0.2-0.5,0.4-0.8,0.4h-2.5C391.1,158.9,390.7,158.8,390.5,158.5z M390.5,141.9c-0.2-0.2-0.3-0.6-0.3-0.9v-6.4
		c0-0.3,0.1-0.6,0.3-0.9c0.2-0.2,0.5-0.4,0.8-0.4h2.5c0.3,0,0.6,0.2,0.8,0.4c0.2,0.2,0.3,0.6,0.3,0.9v6.4c0,0.3-0.1,0.6-0.3,0.9
		c-0.2,0.2-0.5,0.3-0.8,0.3h-2.5C391.1,142.2,390.7,142.1,390.5,141.9z"/>
</g>
<g>
	<path class="st5" d="M177.4,121.9c-0.4,0-0.8,0-1.2-0.1c-0.4,0-0.9-0.1-1.3-0.2c-0.4-0.1-0.9-0.2-1.3-0.3c-0.4-0.1-0.8-0.2-1.1-0.3
		c-0.3-0.1-0.4-0.2-0.5-0.3c-0.1-0.1-0.1-0.3-0.1-0.6l0.3-1.6c0-0.3,0.1-0.4,0.3-0.5s0.3,0,0.5,0c0.3,0.1,0.6,0.2,1,0.3
		c0.4,0.1,0.7,0.2,1.1,0.3c0.4,0.1,0.8,0.2,1.1,0.2c0.4,0,0.7,0.1,1.1,0.1c0.7,0,1.2,0,1.7-0.1c0.4-0.1,0.8-0.3,1.1-0.5
		c0.2-0.2,0.4-0.4,0.5-0.7c0.1-0.3,0.1-0.7,0.1-1.1v-0.2c0-0.7-0.1-1.2-0.3-1.5c-0.2-0.2-0.4-0.4-0.7-0.5s-0.7-0.3-1.2-0.4l-2-0.4
		c-0.9-0.2-1.6-0.4-2.1-0.7s-1-0.6-1.3-1c-0.7-0.8-1.1-1.9-1.1-3.5v-0.4c0-1.8,0.6-3.1,1.7-3.9c0.5-0.4,1.2-0.7,2-0.8
		c0.8-0.2,1.7-0.3,2.8-0.3c0.4,0,0.9,0,1.3,0.1s0.9,0.1,1.3,0.2c0.4,0.1,0.8,0.1,1.1,0.2c0.4,0.1,0.7,0.2,0.9,0.2
		c0.2,0.1,0.4,0.2,0.5,0.3s0.1,0.3,0,0.6l-0.4,1.8c-0.1,0.4-0.4,0.5-0.9,0.3c-0.6-0.2-1.3-0.4-1.9-0.5c-0.6-0.1-1.2-0.2-1.8-0.2
		s-1.1,0-1.4,0.1c-0.4,0.1-0.6,0.2-0.8,0.3s-0.4,0.4-0.5,0.6c-0.1,0.3-0.2,0.6-0.2,1.1v0.2c0,0.4,0,0.7,0.1,0.9
		c0.1,0.2,0.2,0.4,0.4,0.6s0.4,0.3,0.8,0.5s0.7,0.2,1.1,0.3l2.1,0.4c0.9,0.2,1.6,0.4,2.1,0.7c0.6,0.3,1,0.6,1.4,1.1
		c0.3,0.4,0.5,0.9,0.7,1.4c0.1,0.5,0.2,1.2,0.2,1.9v0.4c0,0.9-0.1,1.7-0.4,2.4s-0.6,1.3-1.2,1.8c-0.6,0.5-1.3,0.8-2.1,1
		C179.7,121.8,178.6,121.9,177.4,121.9z"/>
	<path class="st5" d="M190.9,120.9c0,0.3,0,0.5-0.1,0.6s-0.3,0.1-0.6,0.1h-2.1c-0.3,0-0.5,0-0.6-0.1s-0.1-0.3-0.1-0.6v-17
		c0-0.3,0-0.5,0.1-0.6s0.3-0.1,0.6-0.1h2.1c0.3,0,0.5,0,0.6,0.1s0.1,0.3,0.1,0.6V120.9z"/>
	<path class="st5" d="M207.7,104c0.3,0.2,0.4,0.5,0.3,0.9l-0.5,1.6c-0.1,0.2-0.2,0.3-0.3,0.4c-0.2,0-0.3,0-0.5-0.1
		c-0.5-0.3-1.2-0.5-1.9-0.7c-0.8-0.2-1.5-0.3-2.2-0.3s-1.4,0.1-1.9,0.2c-0.5,0.2-1,0.4-1.4,0.8c-0.4,0.5-0.7,1.1-0.9,1.9
		s-0.3,1.9-0.3,3.2v0.6c0,0.7,0,1.3,0,1.8s0.1,1,0.1,1.4c0.1,0.4,0.2,0.8,0.3,1c0.1,0.3,0.3,0.6,0.4,0.8c0.3,0.4,0.8,0.7,1.3,0.9
		s1.2,0.3,2,0.3c0.5,0,0.9,0,1.3,0c0.4,0,0.7,0,0.9-0.1c0.2,0,0.3-0.1,0.4-0.2c0.1-0.1,0.1-0.2,0.1-0.4v-4.2h-2.1
		c-0.3,0-0.5,0-0.6-0.1s-0.2-0.3-0.2-0.5v-1.6c0-0.3,0.1-0.4,0.2-0.6s0.3-0.2,0.6-0.2h5c0.3,0,0.4,0.1,0.5,0.2s0.1,0.3,0.1,0.5v8.2
		c0,0.3,0,0.6-0.1,0.7s-0.3,0.3-0.6,0.4c-0.8,0.2-1.7,0.4-2.6,0.5c-1,0.1-1.9,0.2-2.7,0.2c-1.6,0-2.8-0.1-3.8-0.4
		c-0.9-0.3-1.7-0.7-2.4-1.4c-0.7-0.7-1.2-1.6-1.5-2.8c-0.3-1.2-0.4-2.6-0.4-4.4v-1.1c0-3.4,0.7-5.8,2.2-7.2c0.7-0.6,1.5-1.1,2.5-1.3
		s2.2-0.4,3.5-0.4c0.5,0,0.9,0,1.4,0.1s0.9,0.1,1.4,0.2c0.4,0.1,0.9,0.2,1.3,0.4C207.1,103.7,207.4,103.9,207.7,104z"/>
	<path class="st5" d="M211.9,103.9c0-0.3,0-0.5,0.1-0.6s0.3-0.1,0.6-0.1h1.7c0.4,0,0.7,0,0.9,0.1s0.4,0.3,0.5,0.5l7.1,11.7h0.1
		v-11.7c0-0.3,0-0.5,0.1-0.6s0.3-0.1,0.6-0.1h1.8c0.3,0,0.5,0,0.6,0.1s0.1,0.3,0.1,0.6v17c0,0.3,0,0.5-0.1,0.6s-0.3,0.1-0.6,0.1
		h-1.7c-0.4,0-0.7,0-0.9-0.1s-0.4-0.3-0.5-0.5l-7.1-11.5h-0.1v11.5c0,0.3,0,0.5-0.1,0.6s-0.3,0.1-0.6,0.1h-1.8c-0.3,0-0.5,0-0.6-0.1
		s-0.1-0.3-0.1-0.6V103.9z"/>
	<path class="st5" d="M240.3,120.9c0,0.3,0,0.5-0.1,0.6s-0.3,0.1-0.6,0.1h-2.1c-0.3,0-0.5,0-0.6-0.1s-0.1-0.3-0.1-0.6v-17
		c0-0.3,0-0.5,0.1-0.6s0.3-0.1,0.6-0.1h2.1c0.3,0,0.5,0,0.6,0.1s0.1,0.3,0.1,0.6V120.9z"/>
	<path class="st5" d="M244.3,103.9c0-0.3,0-0.5,0.1-0.6s0.3-0.1,0.6-0.1h1.7c0.4,0,0.7,0,0.9,0.1s0.4,0.3,0.5,0.5l7.1,11.7h0.1
		v-11.7c0-0.3,0-0.5,0.1-0.6s0.3-0.1,0.6-0.1h1.8c0.3,0,0.5,0,0.6,0.1s0.1,0.3,0.1,0.6v17c0,0.3,0,0.5-0.1,0.6s-0.3,0.1-0.6,0.1
		h-1.7c-0.4,0-0.7,0-0.9-0.1s-0.4-0.3-0.5-0.5l-7.1-11.5h-0.1v11.5c0,0.3,0,0.5-0.1,0.6s-0.3,0.1-0.6,0.1H245c-0.3,0-0.5,0-0.6-0.1
		s-0.1-0.3-0.1-0.6V103.9z"/>
</g>
</svg>
