<svg id="Layer_1" data-name="Layer 1" xmlns="http://www.w3.org/2000/svg" xmlns:xlink="http://www.w3.org/1999/xlink" viewBox="0 0 264.71 304.42"><defs><style>.cls-1{fill:none;}.cls-2,.cls-4{fill:#ffffff;}.cls-3{clip-path:url(#clip-path);}.cls-4{fill-rule:evenodd;}</style><clipPath id="clip-path" transform="translate(-19.85)"><rect class="cls-1" x="158.85" y="164.6" width="125.7" height="139.8"/></clipPath></defs><title>smartpage_onlylogo_perfsquare</title><g id="surface1"><path class="cls-2" d="M19.85,9.6V266.1a9.6,9.6,0,0,0,9.6,9.6h111.1c2.1,0,6.7-1.5,7.8-3.3,1.5-1.7,1.9-6.7-.9-8.5-1.1-1.8-4.8-3.1-6.8-3l-101.5-.3c-5.1,0-5.6-9.3-5.6-14.3L34,26.4c0-5,2.7-9,7.7-9h83a10.07,10.07,0,0,1,10.1,10.1V82.3a9.6,9.6,0,0,0,9.6,9.6h61.7c5,0,6.7,6.9,6.7,12l-.2,39.7c0,2.1.6,6.4,4.6,6.9,2.6,1.2,5.6.2,7.5-.4,1.8-1.1,2.1-4.4,2.1-6.4V79.5c0-.1,0-.2-.1-.2l-3.3-5.3s1.6,2.6-.1-.1L147.05,0H29.45A9.6,9.6,0,0,0,19.85,9.6Zm127.2,11,59,59a.48.48,0,0,1,0,.7.37.37,0,0,1-.3.1h-59a.47.47,0,0,1-.5-.5h0V21a.46.46,0,0,1,.4-.5c.1-.1.3,0,.4.1Z" transform="translate(-19.85)"/></g><g class="cls-3"><path class="cls-4" d="M163.85,195.2c-3.1,1.8-5.1,3.6-5.1,9v2.3l56,32.6v48.4L158.85,255v9.8h0c.1,4.1.8,5.3,5.8,8.1l52,30.1a9.66,9.66,0,0,0,10.1,0l52-30.1c6.2-3.6,5.8-4.5,5.8-11.9V204.3c0-5.5-2-7.3-5-9-17.3-9.6-31.8-17.6-49-27.2-3.8-2.1-6.3-3.3-8.8-3.5-2.5.1-5,1.4-8.8,3.5-14.6,8.1-27.2,15.1-41.2,22.9m-.1-.1-7.8,4.3m57.8,30.6-43-24.4,43-23.9,43,23.9Zm50.4,36.6-43.5,25.1V239.1l43.5-25.2Z" transform="translate(-19.85)"/></g></svg>