<svg id="Layer_1" data-name="Layer 1" xmlns="http://www.w3.org/2000/svg" xmlns:xlink="http://www.w3.org/1999/xlink" viewBox="0 0 899.43 304.39"><defs><style>.cls-1{fill:none;}.cls-2,.cls-4,.cls-5{fill:#185eb2;}.cls-3{clip-path:url(#clip-path);}.cls-4{fill-rule:evenodd;}.cls-5{font-size:125px;font-family:Exo2-SemiBold, "Exo 2";font-weight:600;}.cls-6{letter-spacing:0em;}.cls-7{letter-spacing:0em;}.cls-8{letter-spacing:0em;}</style><clipPath id="clip-path" transform="translate(-0.32)"><rect class="cls-1" x="139.3" y="164.56" width="125.7" height="139.83"/></clipPath></defs><title>smartpage_logo</title><g id="surface1"><path class="cls-2" d="M.32,9.62V266.11a9.62,9.62,0,0,0,9.62,9.62H121c2.07,0,6.72-1.55,7.77-3.34,1.49-1.67,1.86-6.69-.92-8.55-1.06-1.79-4.78-3.06-6.85-3l-101.47-.32c-5.05,0-5.56-9.26-5.56-14.31l.43-219.85c0-5,2.69-9,7.74-9h83a10.16,10.16,0,0,1,10.13,10.13V82.29a9.62,9.62,0,0,0,9.62,9.62h61.66c5,0,6.67,6.92,6.67,12L193,143.61c0,2.07.56,6.44,4.58,6.89,2.58,1.17,5.65.17,7.48-.45,1.8-1.05,2.1-4.37,2.08-6.44V79.51a.45.45,0,0,0-.07-.25L203.81,74s1.62,2.64-.07-.1L127.56,0H9.94A9.62,9.62,0,0,0,.32,9.62Zm127.2,11,59,59a.48.48,0,0,1-.34.82h-59a.47.47,0,0,1-.48-.48v-59A.48.48,0,0,1,127.52,20.57Z" transform="translate(-0.32)"/></g><g class="cls-3"><path class="cls-4" d="M144.36,195.24c-3.07,1.76-5.05,3.58-5.05,9v2.31l56,32.57v48.39L139.3,255v9.75h0c.09,4.1.82,5.27,5.78,8.14l52,30.13a9.83,9.83,0,0,0,10.08,0l52-30.13c6.22-3.6,5.79-4.52,5.79-11.88V204.28c0-5.46-2-7.28-5.05-9-17.27-9.61-31.77-17.62-49-27.22-3.79-2.11-6.28-3.31-8.76-3.46-2.47.15-5,1.35-8.75,3.46-14.62,8.12-27.25,15.11-41.25,22.89m0,0-7.79,4.33m57.79,30.47-43-24.45,43-23.9,43,23.9Zm50.33,36.65L209,287.55V239.16L252.48,214Z" transform="translate(-0.32)"/></g><text class="cls-5" transform="translate(264.19 164.06)">Smart<tspan class="cls-6" x="352" y="0">P</tspan><tspan x="426.5" y="0">a</tspan><tspan class="cls-7" x="496.25" y="0">g</tspan><tspan class="cls-8" x="566.75" y="0">e</tspan></text></svg>