<?xml version="1.0" encoding="utf-8"?>
<!-- Generator: Adobe Illustrator 22.1.0, SVG Export Plug-In . SVG Version: 6.00 Build 0)  -->
<svg version="1.1" id="Layer_1" xmlns="http://www.w3.org/2000/svg" xmlns:xlink="http://www.w3.org/1999/xlink" x="0px" y="0px"
	 viewBox="0 0 1000 1000" style="enable-background:new 0 0 1000 1000;" xml:space="preserve">
<style type="text/css">
	.st0{fill:#ffffff;}
</style>
<path class="st0" d="M500,10C229.4,10,10,229.4,10,500s219.4,490,490,490s490-219.4,490-490.1C990,229.4,770.6,10,500,10z
	 M500.5,930C264.4,930,73,738.7,73,502.5S264.3,75,500.5,75c236.1,0,427.6,191.3,427.6,427.5S736.6,930,500.5,930z M372.4,487.2
	c42.3,0,76.5-40,76.5-89.3c0-49.4-34.3-89.3-76.6-89.3s-76.6,40-76.6,89.3C295.8,447.3,330.1,487.2,372.4,487.2z M627.6,487.2
	c42.3,0,76.6-40,76.6-89.3c0-49.4-34.3-89.3-76.6-89.3s-76.6,40-76.6,89.3S585.3,487.2,627.6,487.2z M721.6,568.2
	c-18.5-9.5-41.6-2.2-51.4,16.3c-1.7,3.4-44.4,81.3-170.1,81.3c-125.1,0-168-77.2-170.1-81.3c-9.6-18.6-32.3-26.2-51.2-16.8
	c-18.9,9.5-26.5,32.5-17.1,51.4c2.6,5.1,63.7,123.2,238.5,123.2S736.1,624.1,738.6,619C747.8,600.4,740.3,577.8,721.6,568.2z"/>
</svg>
