<?xml version="1.0" encoding="utf-8"?>
<svg xmlns="http://www.w3.org/2000/svg" viewBox="0 0 24 24" fill="#ffffff"><path d="M 15 0 L 15 3 L 12.5 8 L 5.4003906 8 L 3.4003906 6 L 2 7.4003906 L 4 9.4003906 L 4 11 L 4 13 L 3 15 L 2 21 L 4.25 21 L 5 17 L 7 15 L 13.556641 15 L 15.849609 21 L 17.990234 21 L 16.5 15.814453 L 16.5 15 L 18 12 L 18 7 L 18.757812 7 C 19.553812 7 20.316906 6.6840938 20.878906 6.1210938 L 22 5 L 22 3.5 C 22 3.224 21.776 3 21.5 3 L 20 3 L 19.292969 2.2929688 C 19.104969 2.1049687 18.850938 2 18.585938 2 L 17.5 2 L 16.599609 0.80078125 C 16.221609 0.29678125 15.63 1.4802974e-16 15 0 z M 7.828125 17 L 7.4355469 17.392578 L 8.75 21 L 11 21 L 9.6347656 17 L 7.828125 17 z" fill="#ffffff"/></svg>
