<?xml version="1.0" encoding="utf-8"?>
<svg xmlns="http://www.w3.org/2000/svg" viewBox="0 0 24 24" fill="#ffffff"><path style="line-height:normal;text-indent:0;text-align:start;text-decoration-line:none;text-decoration-style:solid;text-decoration-color:#000;text-transform:none;block-progression:tb;isolation:auto;mix-blend-mode:normal" d="M 7.0058594 4.0351562 C 6.3070546 4.0787023 5.629202 4.4544866 5.2851562 5.1425781 L 5.2714844 5.1679688 L 2 12.794922 L 2 13.744141 C 2 15.189048 2.3905354 16.652562 3.2578125 17.876953 C 3.9957618 18.91897 5.25 20 7 20 C 8.8333333 20 10.025274 18.93578 10.519531 17.947266 C 11.013788 16.958752 11 16 11 16 L 11 14 C 11 13.43497 11.43497 13 12 13 C 12.56503 13 13 13.43497 13 14 L 13 16 C 13 16 12.98621 16.958752 13.480469 17.947266 C 13.974726 18.93578 15.166667 20 17 20 C 18.75 20 20.004238 18.91897 20.742188 17.876953 C 21.609288 16.652811 22 15.189905 22 13.744141 L 22 12.794922 L 18.728516 5.1679688 L 18.714844 5.1425781 C 18.02675 3.7663953 16.003192 3.6397783 15.150391 4.9199219 L 15.144531 4.9257812 L 14.158203 6.4589844 L 15.841797 7.5410156 L 16.814453 6.0292969 C 16.867653 5.9494409 16.881873 5.9492954 16.925781 6.0371094 L 19.482422 12 L 14.212891 12 C 13.662162 11.391838 12.876386 11 12 11 C 11.123614 11 10.337838 11.391838 9.7871094 12 L 4.5175781 12 L 7.0742188 6.0371094 C 7.1181268 5.9492924 7.1323488 5.9494379 7.1855469 6.0292969 L 8.1582031 7.5410156 L 9.8417969 6.4589844 L 8.8554688 4.9257812 L 8.8496094 4.9199219 C 8.4232086 4.2798501 7.7046642 3.9916102 7.0058594 4.0351562 z" font-weight="400" font-family="sans-serif" white-space="normal" overflow="visible" fill="#ffffff"/></svg>
