<?xml version="1.0" encoding="utf-8"?>
<svg xmlns="http://www.w3.org/2000/svg" viewBox="0 0 24 24" fill="#ffffff"><path d="M 9 3 C 5.691 3 3 5.691 3 9 L 21 9 C 21 5.691 18.309 3 15 3 L 9 3 z M 4 11.025391 C 3.5838451 11.025391 3.1676795 11.146021 2.8339844 11.386719 L 1.9960938 11.992188 L 3.1660156 13.613281 L 4 13.009766 L 4.8339844 13.613281 L 5.0957031 13.802734 L 5.4199219 13.802734 L 5.3378906 13.775391 C 5.3658609 13.781855 5.3944932 13.786665 5.421875 13.794922 L 5.4199219 13.802734 L 5.4453125 13.802734 C 5.8234956 13.911674 6.1765044 13.911674 6.5546875 13.802734 L 8.5117188 13.802734 L 7.7070312 13.222656 L 8 13.009766 L 8.8339844 13.613281 C 9.5013746 14.094677 10.498625 14.094677 11.166016 13.613281 L 12 13.009766 L 12.833984 13.613281 C 13.501375 14.094677 14.498625 14.094677 15.166016 13.613281 L 16 13.009766 L 16.833984 13.613281 C 17.501375 14.094677 18.498625 14.094677 19.166016 13.613281 L 20 13.009766 L 20.833984 13.613281 L 22.003906 11.992188 L 21.166016 11.386719 C 20.498625 10.905323 19.501375 10.905323 18.833984 11.386719 L 18 11.990234 L 17.998047 11.990234 L 17.166016 11.386719 C 16.498625 10.905323 15.501375 10.905323 14.833984 11.386719 L 14 11.990234 L 13.998047 11.990234 L 13.166016 11.386719 C 12.498625 10.905323 11.501375 10.905323 10.833984 11.386719 L 10 11.990234 L 9.9980469 11.990234 L 9.1660156 11.386719 C 8.4986254 10.905323 7.5013746 10.905323 6.8339844 11.386719 L 6 11.988281 L 5.1660156 11.386719 C 4.8323205 11.146021 4.4161549 11.025391 4 11.025391 z M 3 16 L 3 18 C 3 19.654 4.346 21 6 21 L 18 21 C 19.654 21 21 19.654 21 18 L 21 16 L 3 16 z" fill="#ffffff"/></svg>
