<?xml version="1.0" encoding="utf-8"?>
<svg xmlns="http://www.w3.org/2000/svg" viewBox="0 0 24 24"><path d="M 12 2 L 12 10.166016 L 11.082031 10.013672 L 11 10.013672 L 11 3 L 9 3 L 9 12.71875 L 9 16.03125 L 6.2890625 14.060547 L 6.1894531 14.007812 C 5.2444531 13.565812 4.1272031 13.777297 3.4082031 14.529297 L 3.0722656 14.9375 L 8.0527344 21.046875 L 8.1210938 21.121094 C 8.6880938 21.687094 9.4411875 22 10.242188 22 L 17 22 C 18.654 22 20 20.654 20 19 L 20 13.193359 C 20 13.127292 19.988644 13.064525 19.982422 13 L 20 13 L 20 5 L 18 5 L 18 11.167969 L 17 11 L 17 3 L 15 3 L 15 10.666016 L 14 10.5 L 14 2 L 12 2 z" fill="#62493c"/></svg>
