<?xml version="1.0" encoding="utf-8"?>
<svg xmlns="http://www.w3.org/2000/svg" viewBox="0 0 24 24" fill="#ffffff"><path d="M 12 2 C 6.5 2 2 6.5 2 12 C 2 17.5 6.5 22 12 22 C 17.5 22 22 17.5 22 12 C 22 6.5 17.5 2 12 2 z M 12 4 C 13.036204 4 14.024651 4.2056135 14.935547 4.5683594 L 12 5.8007812 L 9.0644531 4.5683594 C 9.975349 4.2056135 10.963796 4 12 4 z M 5.9023438 6.8398438 L 6.0996094 10.099609 L 4.0234375 12.460938 C 4.0145527 12.307424 4 12.155639 4 12 C 4 10.0374 4.7183386 8.2356311 5.9023438 6.8398438 z M 18.097656 6.8398438 C 19.281661 8.2356311 20 10.0374 20 12 C 20 12.155639 19.985447 12.307424 19.976562 12.460938 L 17.900391 10.099609 L 18.097656 6.8398438 z M 12 8.4296875 L 15.757812 11.154297 L 14.255859 15.570312 L 9.7441406 15.570312 L 8.2421875 11.154297 L 12 8.4296875 z M 5.2285156 16.230469 L 8.4003906 17 L 10.003906 19.736328 C 8.0025915 19.216637 6.3034891 17.940671 5.2285156 16.230469 z M 18.771484 16.230469 C 17.696511 17.940671 15.997409 19.216637 13.996094 19.736328 L 15.599609 17 L 18.771484 16.230469 z" fill="#ffffff"/></svg>
