<svg id="Layer_1" data-name="Layer 1" xmlns="http://www.w3.org/2000/svg" viewBox="0 0 886.72 991.67"><defs><style>.cls-1{fill:#fff;fill-rule:evenodd;}</style></defs><title>unlocked-btn</title><path class="cls-1" d="M942.1,687.38V285.2c0-38.7-14-51.61-35.66-64.12C784.64,153,682.35,96.12,560.55,28,533.81,13.06,516.25,4.59,498.78,3.5,481.31,4.59,463.75,13.06,437,28,315.21,96.12,212.92,153,91.12,221.08,69.45,233.59,55.46,246.5,55.46,285.2v16.4l87.93,51.2v-7.29h.39V353L236,406.74v.91L450.6,532.59V875.75L143.78,697.09l-.39,0V696l-88-51.22V713.9h.09c.66,29.06,5.82,37.35,40.81,57.72,124.4,72.44,242.5,141.24,366.9,213.67a68.93,68.93,0,0,0,71.12,0c124.4-72.43,242.51-141.23,366.91-213.67C945.07,746.1,942.1,739.57,942.1,687.38ZM498.78,437.19l-303-173.44,303-169.46,303,169.46Zm355,259.9L547,875.75V532.59L853.78,353.93Z" transform="translate(-55.42 -3.5)"/></svg>